<svg version="1.1" viewBox="0.0 0.0 576.0 324.0" fill="none" stroke="none" stroke-linecap="square" stroke-miterlimit="10" xmlns:xlink="http://www.w3.org/1999/xlink" xmlns="http://www.w3.org/2000/svg"><clipPath id="g38bf344d5d9_0_0.0"><path d="m0 0l576.0 0l0 324.0l-576.0 0l0 -324.0z" clip-rule="nonzero"/></clipPath><g clip-path="url(#g38bf344d5d9_0_0.0)"><path fill="#ffffff" d="m0 0l576.0 0l0 324.0l-576.0 0z" fill-rule="evenodd"/><path fill="#b29ae7" fill-opacity="0.5" d="m375.9908 163.51402l0 0c0 -43.156487 35.880676 -78.14173 80.14172 -78.14173l0 0c21.254913 0 41.639282 8.232765 56.668793 22.887184c15.02948 14.654419 23.472961 34.530075 23.472961 55.254547l0 0c0 43.156494 -35.880676 78.14174 -80.141754 78.14174l0 0c-44.261047 0 -80.14172 -34.985245 -80.14172 -78.14174z" fill-rule="evenodd"/><path stroke="#595959" stroke-width="2.3989501312335957" stroke-linejoin="round" stroke-linecap="butt" d="m375.9908 163.51402l0 0c0 -43.156487 35.880676 -78.14173 80.14172 -78.14173l0 0c21.254913 0 41.639282 8.232765 56.668793 22.887184c15.02948 14.654419 23.472961 34.530075 23.472961 55.254547l0 0c0 43.156494 -35.880676 78.14174 -80.141754 78.14174l0 0c-44.261047 0 -80.14172 -34.985245 -80.14172 -78.14174z" fill-rule="evenodd"/><path fill="#000000" d="m392.81412 159.43402l0 -13.3125l1.546875 0l0 13.3125l-1.546875 0zm9.710632 -10.171875q1.765625 0 2.671875 0.875q0.921875 0.875 0.921875 2.796875l0 6.5l-1.5 0l0 -6.40625q0 -1.25 -0.578125 -1.859375q-0.5625 -0.625 -1.734375 -0.625q-1.65625 0 -2.328125 0.9375q-0.671875 0.9375 -0.671875 2.71875l0 5.234375l-1.515625 0l0 -9.984375l1.21875 0l0.234375 1.4375l0.078125 0q0.3125 -0.53125 0.796875 -0.890625q0.5 -0.359375 1.109375 -0.546875q0.609375 -0.1875 1.296875 -0.1875zm9.925903 9.109375q0.375 0 0.765625 -0.0625q0.390625 -0.0625 0.640625 -0.15625l0 1.1875q-0.265625 0.109375 -0.734375 0.1875q-0.46875 0.09375 -0.90625 0.09375q-0.796875 0 -1.453125 -0.28125q-0.640625 -0.28125 -1.03125 -0.9375q-0.375 -0.671875 -0.375 -1.84375l0 -5.921875l-1.421875 0l0 -0.734375l1.421875 -0.59375l0.609375 -2.171875l0.90625 0l0 2.3125l2.921875 0l0 1.1875l-2.921875 0l0 5.875q0 0.9375 0.421875 1.40625q0.4375 0.453125 1.15625 0.453125zm7.274933 -9.109375q1.28125 0 2.1875 0.578125q0.90625 0.5625 1.390625 1.578125q0.484375 1.015625 0.484375 2.375l0 0.9375l-6.890625 0q0.015625 1.75 0.859375 2.671875q0.859375 0.921875 2.390625 0.921875q0.953125 0 1.671875 -0.171875q0.734375 -0.171875 1.53125 -0.515625l0 1.328125q-0.765625 0.34375 -1.515625 0.5q-0.734375 0.15625 -1.75 0.15625q-1.4375 0 -2.515625 -0.59375q-1.0625 -0.59375 -1.65625 -1.71875q-0.59375 -1.140625 -0.59375 -2.796875q0 -1.609375 0.546875 -2.78125q0.546875 -1.1875 1.53125 -1.828125q0.984375 -0.640625 2.328125 -0.640625zm-0.015625 1.25q-1.21875 0 -1.9375 0.796875q-0.71875 0.78125 -0.859375 2.203125l5.296875 0q-0.015625 -0.890625 -0.28125 -1.5625q-0.265625 -0.6875 -0.8125 -1.0625q-0.546875 -0.375 -1.40625 -0.375zm11.179047 -1.25q0.3125 0 0.640625 0.03125q0.328125 0.03125 0.578125 0.09375l-0.1875 1.40625q-0.25 -0.0625 -0.5625 -0.09375q-0.296875 -0.046875 -0.546875 -0.046875q-0.609375 0 -1.140625 0.25q-0.53125 0.234375 -0.9375 0.6875q-0.390625 0.453125 -0.625 1.09375q-0.234375 0.625 -0.234375 1.390625l0 5.359375l-1.515625 0l0 -9.984375l1.25 0l0.171875 1.84375l0.0625 0q0.3125 -0.5625 0.75 -1.015625q0.4375 -0.46875 1.015625 -0.734375q0.578125 -0.28125 1.28125 -0.28125zm7.827759 0q1.765625 0 2.671875 0.875q0.921875 0.875 0.921875 2.796875l0 6.5l-1.5 0l0 -6.40625q0 -1.25 -0.578125 -1.859375q-0.5625 -0.625 -1.734375 -0.625q-1.65625 0 -2.328125 0.9375q-0.671875 0.9375 -0.671875 2.71875l0 5.234375l-1.515625 0l0 -9.984375l1.21875 0l0.234375 1.4375l0.078125 0q0.3125 -0.53125 0.796875 -0.890625q0.5 -0.359375 1.109375 -0.546875q0.609375 -0.1875 1.296875 -0.1875zm10.441528 0.03125q1.78125 0 2.640625 0.796875q0.875 0.796875 0.875 2.5625l0 6.78125l-1.09375 0l-0.296875 -1.46875l-0.078125 0q-0.421875 0.546875 -0.875 0.921875q-0.453125 0.359375 -1.046875 0.546875q-0.59375 0.1875 -1.46875 0.1875q-0.90625 0 -1.609375 -0.3125q-0.703125 -0.328125 -1.109375 -0.96875q-0.40625 -0.65625 -0.40625 -1.640625q0 -1.5 1.171875 -2.296875q1.1875 -0.8125 3.609375 -0.875l1.734375 -0.078125l0 -0.609375q0 -1.296875 -0.5625 -1.8125q-0.546875 -0.515625 -1.5625 -0.515625q-0.78125 0 -1.5 0.234375q-0.703125 0.21875 -1.34375 0.53125l-0.46875 -1.15625q0.671875 -0.34375 1.546875 -0.578125q0.875 -0.25 1.84375 -0.25zm2.015625 5.21875l-1.515625 0.0625q-1.859375 0.078125 -2.625 0.625q-0.765625 0.53125 -0.765625 1.515625q0 0.84375 0.515625 1.265625q0.515625 0.40625 1.375 0.40625q1.328125 0 2.171875 -0.734375q0.84375 -0.734375 0.84375 -2.21875l0 -0.921875zm6.1322327 4.921875l-1.515625 0l0 -14.171875l1.515625 0l0 14.171875zm13.962128 -12.140625q-1.109375 0 -1.984375 0.375q-0.875 0.375 -1.5 1.09375q-0.609375 0.71875 -0.9375 1.734375q-0.328125 1.0 -0.328125 2.265625q0 1.6875 0.515625 2.921875q0.53125 1.234375 1.578125 1.90625q1.046875 0.671875 2.609375 0.671875q0.890625 0 1.671875 -0.140625q0.796875 -0.15625 1.546875 -0.390625l0 1.34375q-0.734375 0.28125 -1.53125 0.40625q-0.796875 0.140625 -1.90625 0.140625q-2.03125 0 -3.390625 -0.84375q-1.359375 -0.84375 -2.046875 -2.375q-0.671875 -1.546875 -0.671875 -3.640625q0 -1.515625 0.421875 -2.765625q0.421875 -1.25 1.234375 -2.15625q0.8125 -0.921875 2.0 -1.421875q1.203125 -0.5 2.734375 -0.5q1.015625 0 1.953125 0.203125q0.9375 0.203125 1.6875 0.578125l-0.609375 1.3125q-0.640625 -0.296875 -1.40625 -0.5q-0.75 -0.21875 -1.640625 -0.21875zm9.563751 2.0q1.78125 0 2.640625 0.796875q0.875 0.796875 0.875 2.5625l0 6.78125l-1.09375 0l-0.296875 -1.46875l-0.078125 0q-0.421875 0.546875 -0.875 0.921875q-0.453125 0.359375 -1.046875 0.546875q-0.59375 0.1875 -1.46875 0.1875q-0.90625 0 -1.609375 -0.3125q-0.703125 -0.328125 -1.109375 -0.96875q-0.40625 -0.65625 -0.40625 -1.640625q0 -1.5 1.171875 -2.296875q1.1875 -0.8125 3.609375 -0.875l1.734375 -0.078125l0 -0.609375q0 -1.296875 -0.5625 -1.8125q-0.546875 -0.515625 -1.5625 -0.515625q-0.78125 0 -1.5 0.234375q-0.703125 0.21875 -1.34375 0.53125l-0.46875 -1.15625q0.671875 -0.34375 1.546875 -0.578125q0.875 -0.25 1.84375 -0.25zm2.015625 5.21875l-1.515625 0.0625q-1.859375 0.078125 -2.625 0.625q-0.765625 0.53125 -0.765625 1.515625q0 0.84375 0.515625 1.265625q0.515625 0.40625 1.375 0.40625q1.328125 0 2.171875 -0.734375q0.84375 -0.734375 0.84375 -2.21875l0 -0.921875zm12.866608 -5.0625l0 9.984375l-1.25 0l-0.21875 -1.40625l-0.078125 0q-0.3125 0.515625 -0.8125 0.875q-0.484375 0.359375 -1.09375 0.53125q-0.609375 0.1875 -1.3125 0.1875q-1.171875 0 -1.984375 -0.375q-0.796875 -0.390625 -1.203125 -1.1875q-0.40625 -0.8125 -0.40625 -2.0625l0 -6.546875l1.53125 0l0 6.4375q0 1.234375 0.5625 1.859375q0.5625 0.609375 1.71875 0.609375q1.109375 0 1.765625 -0.40625q0.671875 -0.421875 0.953125 -1.234375q0.296875 -0.828125 0.296875 -2.015625l0 -5.25l1.53125 0zm9.644653 7.25q0 0.953125 -0.484375 1.609375q-0.46875 0.65625 -1.359375 0.984375q-0.890625 0.328125 -2.109375 0.328125q-1.046875 0 -1.8125 -0.171875q-0.765625 -0.15625 -1.34375 -0.46875l0 -1.390625q0.609375 0.296875 1.453125 0.546875q0.859375 0.25 1.734375 0.25q1.296875 0 1.875 -0.421875q0.59375 -0.421875 0.59375 -1.140625q0 -0.40625 -0.234375 -0.71875q-0.234375 -0.3125 -0.78125 -0.609375q-0.546875 -0.296875 -1.515625 -0.65625q-0.953125 -0.359375 -1.65625 -0.71875q-0.6875 -0.359375 -1.078125 -0.875q-0.375 -0.53125 -0.375 -1.359375q0 -1.265625 1.015625 -1.9375q1.03125 -0.6875 2.703125 -0.6875q0.90625 0 1.6875 0.1875q0.796875 0.171875 1.46875 0.46875l-0.5 1.21875q-0.625 -0.265625 -1.328125 -0.4375q-0.703125 -0.1875 -1.421875 -0.1875q-1.046875 0 -1.609375 0.34375q-0.5625 0.34375 -0.5625 0.9375q0 0.46875 0.25 0.78125q0.265625 0.296875 0.84375 0.5625q0.578125 0.25 1.515625 0.609375q0.9375 0.34375 1.609375 0.71875q0.6875 0.375 1.046875 0.90625q0.375 0.515625 0.375 1.328125zm6.172119 -7.40625q1.7812195 0 2.6405945 0.796875q0.875 0.796875 0.875 2.5625l0 6.78125l-1.09375 0l-0.296875 -1.46875l-0.078125 0q-0.421875 0.546875 -0.875 0.921875q-0.453125 0.359375 -1.0468445 0.546875q-0.59375 0.1875 -1.46875 0.1875q-0.90625 0 -1.609375 -0.3125q-0.703125 -0.328125 -1.109375 -0.96875q-0.40625 -0.65625 -0.40625 -1.640625q0 -1.5 1.171875 -2.296875q1.1875 -0.8125 3.609375 -0.875l1.7343445 -0.078125l0 -0.609375q0 -1.296875 -0.5625 -1.8125q-0.546875 -0.515625 -1.5624695 -0.515625q-0.78125 0 -1.5 0.234375q-0.703125 0.21875 -1.34375 0.53125l-0.46875 -1.15625q0.671875 -0.34375 1.546875 -0.578125q0.875 -0.25 1.84375 -0.25zm2.0155945 5.21875l-1.515625 0.0625q-1.8593445 0.078125 -2.6249695 0.625q-0.765625 0.53125 -0.765625 1.515625q0 0.84375 0.515625 1.265625q0.515625 0.40625 1.375 0.40625q1.328125 0 2.1718445 -0.734375q0.84375 -0.734375 0.84375 -2.21875l0 -0.921875zm6.132263 4.921875l-1.515625 0l0 -14.171875l1.515625 0l0 14.171875z" fill-rule="nonzero"/><path fill="#000000" d="m409.2021 181.43402l-4.46875 -11.78125l-0.0625 0q0.03125 0.359375 0.046875 0.90625q0.03125 0.53125 0.046875 1.171875q0.03125 0.625 0.03125 1.28125l0 8.421875l-1.4375 0l0 -13.3125l2.296875 0l4.203125 11.078125l0.078125 0l4.28125 -11.078125l2.265625 0l0 13.3125l-1.53125 0l0 -8.53125q0 -0.59375 0.015625 -1.1875q0.03125 -0.59375 0.046875 -1.125q0.03125 -0.53125 0.0625 -0.921875l-0.078125 0l-4.515625 11.765625l-1.28125 0zm14.545319 -10.171875q1.28125 0 2.1875 0.578125q0.90625 0.5625 1.390625 1.578125q0.484375 1.015625 0.484375 2.375l0 0.9375l-6.890625 0q0.015625 1.75 0.859375 2.671875q0.859375 0.921875 2.390625 0.921875q0.953125 0 1.671875 -0.171875q0.734375 -0.171875 1.53125 -0.515625l0 1.328125q-0.765625 0.34375 -1.515625 0.5q-0.734375 0.15625 -1.75 0.15625q-1.4375 0 -2.515625 -0.59375q-1.0625 -0.59375 -1.65625 -1.71875q-0.59375 -1.140625 -0.59375 -2.796875q0 -1.609375 0.546875 -2.78125q0.546875 -1.1875 1.53125 -1.828125q0.984375 -0.640625 2.328125 -0.640625zm-0.015625 1.25q-1.21875 0 -1.9375 0.796875q-0.71875 0.78125 -0.859375 2.203125l5.296875 0q-0.015625 -0.890625 -0.28125 -1.5625q-0.265625 -0.6875 -0.8125 -1.0625q-0.546875 -0.375 -1.40625 -0.375zm10.647797 9.109375q-1.34375 0 -2.375 -0.546875q-1.03125 -0.5625 -1.609375 -1.703125q-0.578125 -1.140625 -0.578125 -2.875q0 -1.8125 0.609375 -2.96875q0.609375 -1.15625 1.671875 -1.703125q1.0625 -0.5625 2.421875 -0.5625q0.75 0 1.4375 0.15625q0.703125 0.15625 1.15625 0.375l-0.453125 1.265625q-0.453125 -0.171875 -1.0625 -0.3125q-0.59375 -0.15625 -1.109375 -0.15625q-1.03125 0 -1.734375 0.453125q-0.6875 0.4375 -1.03125 1.3125q-0.328125 0.859375 -0.328125 2.125q0 1.203125 0.328125 2.0625q0.328125 0.859375 0.984375 1.3125q0.671875 0.453125 1.65625 0.453125q0.796875 0 1.4375 -0.171875q0.640625 -0.171875 1.15625 -0.390625l0 1.34375q-0.5 0.25 -1.125 0.390625q-0.609375 0.140625 -1.453125 0.140625zm6.452057 -14.359375l0 4.234375q0 0.359375 -0.03125 0.734375q-0.015625 0.359375 -0.046875 0.671875l0.09375 0q0.3125 -0.53125 0.78125 -0.890625q0.484375 -0.359375 1.09375 -0.53125q0.609375 -0.1875 1.296875 -0.1875q1.203125 0 2.0 0.390625q0.8125 0.375 1.21875 1.171875q0.40625 0.796875 0.40625 2.078125l0 6.5l-1.5 0l0 -6.40625q0 -1.25 -0.578125 -1.859375q-0.5625 -0.625 -1.734375 -0.625q-1.109375 0 -1.765625 0.421875q-0.65625 0.421875 -0.953125 1.25q-0.28125 0.8125 -0.28125 2.0l0 5.21875l-1.515625 0l0 -14.171875l1.515625 0zm13.660278 4.03125q1.78125 0 2.640625 0.796875q0.875 0.796875 0.875 2.5625l0 6.78125l-1.09375 0l-0.296875 -1.46875l-0.078125 0q-0.421875 0.546875 -0.875 0.921875q-0.453125 0.359375 -1.046875 0.546875q-0.59375 0.1875 -1.46875 0.1875q-0.90625 0 -1.609375 -0.3125q-0.703125 -0.328125 -1.109375 -0.96875q-0.40625 -0.65625 -0.40625 -1.640625q0 -1.5 1.171875 -2.296875q1.1875 -0.8125 3.609375 -0.875l1.734375 -0.078125l0 -0.609375q0 -1.296875 -0.5625 -1.8125q-0.546875 -0.515625 -1.5625 -0.515625q-0.78125 0 -1.5 0.234375q-0.703125 0.21875 -1.34375 0.53125l-0.46875 -1.15625q0.671875 -0.34375 1.546875 -0.578125q0.875 -0.25 1.84375 -0.25zm2.015625 5.21875l-1.515625 0.0625q-1.859375 0.078125 -2.625 0.625q-0.765625 0.53125 -0.765625 1.515625q0 0.84375 0.515625 1.265625q0.515625 0.40625 1.375 0.40625q1.328125 0 2.171875 -0.734375q0.84375 -0.734375 0.84375 -2.21875l0 -0.921875zm9.350983 -5.25q1.765625 0 2.671875 0.875q0.921875 0.875 0.921875 2.796875l0 6.5l-1.5 0l0 -6.40625q0 -1.25 -0.578125 -1.859375q-0.5625 -0.625 -1.734375 -0.625q-1.65625 0 -2.328125 0.9375q-0.671875 0.9375 -0.671875 2.71875l0 5.234375l-1.515625 0l0 -9.984375l1.21875 0l0.234375 1.4375l0.078125 0q0.3125 -0.53125 0.796875 -0.890625q0.5 -0.359375 1.109375 -0.546875q0.609375 -0.1875 1.296875 -0.1875zm8.222778 0.1875l0 9.984375l-1.515625 0l0 -9.984375l1.515625 0zm-0.734375 -3.734375q0.359375 0 0.625 0.25q0.28125 0.234375 0.28125 0.75q0 0.5 -0.28125 0.75q-0.265625 0.234375 -0.625 0.234375q-0.390625 0 -0.65625 -0.234375q-0.265625 -0.25 -0.265625 -0.75q0 -0.515625 0.265625 -0.75q0.265625 -0.25 0.65625 -0.25zm10.38147 10.984375q0 0.953125 -0.484375 1.609375q-0.46875 0.65625 -1.359375 0.984375q-0.890625 0.328125 -2.109375 0.328125q-1.046875 0 -1.8125 -0.171875q-0.765625 -0.15625 -1.34375 -0.46875l0 -1.390625q0.609375 0.296875 1.453125 0.546875q0.859375 0.25 1.734375 0.25q1.296875 0 1.875 -0.421875q0.59375 -0.421875 0.59375 -1.140625q0 -0.40625 -0.234375 -0.71875q-0.234375 -0.3125 -0.78125 -0.609375q-0.546875 -0.296875 -1.515625 -0.65625q-0.953125 -0.359375 -1.65625 -0.71875q-0.6875 -0.359375 -1.078125 -0.875q-0.375 -0.53125 -0.375 -1.359375q0 -1.265625 1.015625 -1.9375q1.03125 -0.6875 2.703125 -0.6875q0.90625 0 1.6875 0.1875q0.796875 0.171875 1.46875 0.46875l-0.5 1.21875q-0.625 -0.265625 -1.328125 -0.4375q-0.703125 -0.1875 -1.421875 -0.1875q-1.046875 0 -1.609375 0.34375q-0.5625 0.34375 -0.5625 0.9375q0 0.46875 0.25 0.78125q0.265625 0.296875 0.84375 0.5625q0.578125 0.25 1.515625 0.609375q0.9375 0.34375 1.609375 0.71875q0.6875 0.375 1.046875 0.90625q0.375 0.515625 0.375 1.328125zm13.281494 -7.4375q1.640625 0 2.484375 0.875q0.84375 0.859375 0.84375 2.75l0 6.546875l-1.5 0l0 -6.46875q0 -1.203125 -0.53125 -1.8125q-0.515625 -0.609375 -1.546875 -0.609375q-1.453125 0 -2.109375 0.84375q-0.65625 0.828125 -0.65625 2.46875l0 5.578125l-1.5 0l0 -6.46875q0 -0.8125 -0.234375 -1.34375q-0.234375 -0.546875 -0.6875 -0.8125q-0.453125 -0.265625 -1.15625 -0.265625q-1.0 0 -1.609375 0.40625q-0.59375 0.40625 -0.859375 1.21875q-0.265625 0.8125 -0.265625 1.984375l0 5.28125l-1.515625 0l0 -9.984375l1.21875 0l0.234375 1.40625l0.078125 0q0.296875 -0.515625 0.75 -0.859375q0.46875 -0.359375 1.03125 -0.546875q0.5625 -0.1875 1.203125 -0.1875q1.125 0 1.890625 0.4375q0.78125 0.421875 1.125 1.28125l0.078125 0q0.5 -0.859375 1.359375 -1.28125q0.859375 -0.4375 1.875 -0.4375zm12.880981 7.4375q0 0.953125 -0.484375 1.609375q-0.46875 0.65625 -1.359375 0.984375q-0.890625 0.328125 -2.109375 0.328125q-1.046875 0 -1.8125 -0.171875q-0.765625 -0.15625 -1.34375 -0.46875l0 -1.390625q0.609375 0.296875 1.453125 0.546875q0.859375 0.25 1.734375 0.25q1.296875 0 1.875 -0.421875q0.59375 -0.421875 0.59375 -1.140625q0 -0.40625 -0.234375 -0.71875q-0.234375 -0.3125 -0.78125 -0.609375q-0.546875 -0.296875 -1.515625 -0.65625q-0.953125 -0.359375 -1.65625 -0.71875q-0.6875 -0.359375 -1.078125 -0.875q-0.375 -0.53125 -0.375 -1.359375q0 -1.265625 1.015625 -1.9375q1.03125 -0.6875 2.703125 -0.6875q0.90625 0 1.6875 0.1875q0.796875 0.171875 1.46875 0.46875l-0.5 1.21875q-0.625 -0.265625 -1.328125 -0.4375q-0.703125 -0.1875 -1.421875 -0.1875q-1.046875 0 -1.609375 0.34375q-0.5625 0.34375 -0.5625 0.9375q0 0.46875 0.25 0.78125q0.265625 0.296875 0.84375 0.5625q0.578125 0.25 1.515625 0.609375q0.9375 0.34375 1.609375 0.71875q0.6875 0.375 1.046875 0.90625q0.375 0.515625 0.375 1.328125z" fill-rule="nonzero"/><path fill="#c7e4ff" d="m39.725723 163.51402l0 0c0 -43.156487 35.880676 -78.14173 80.14173 -78.14173l0 0c21.254906 0 41.639275 8.232765 56.668755 22.887184c15.029495 14.654419 23.472977 34.530075 23.472977 55.254547l0 0c0 43.156494 -35.880676 78.14174 -80.14173 78.14174l0 0c-44.261055 0 -80.14173 -34.985245 -80.14173 -78.14174z" fill-rule="evenodd"/><path stroke="#595959" stroke-width="2.3989501312335957" stroke-linejoin="round" stroke-linecap="butt" d="m39.725723 163.51402l0 0c0 -43.156487 35.880676 -78.14173 80.14173 -78.14173l0 0c21.254906 0 41.639275 8.232765 56.668755 22.887184c15.029495 14.654419 23.472977 34.530075 23.472977 55.254547l0 0c0 43.156494 -35.880676 78.14174 -80.14173 78.14174l0 0c-44.261055 0 -80.14173 -34.985245 -80.14173 -78.14174z" fill-rule="evenodd"/><path fill="#000000" d="m64.13129 152.44965l4.65625 0l0 6.46875q-1.046875 0.359375 -2.15625 0.53125q-1.109375 0.171875 -2.46875 0.171875q-2.078125 0 -3.515625 -0.828125q-1.421875 -0.828125 -2.15625 -2.359375q-0.734375 -1.546875 -0.734375 -3.65625q0 -2.078125 0.8125 -3.609375q0.8125 -1.546875 2.359375 -2.390625q1.546875 -0.859375 3.71875 -0.859375q1.109375 0 2.09375 0.21875q1.0 0.203125 1.859375 0.578125l-0.59375 1.34375q-0.734375 -0.328125 -1.625 -0.546875q-0.890625 -0.234375 -1.828125 -0.234375q-1.640625 0 -2.796875 0.6875q-1.15625 0.671875 -1.78125 1.90625q-0.609375 1.21875 -0.609375 2.90625q0 1.671875 0.53125 2.90625q0.546875 1.234375 1.6875 1.921875q1.140625 0.671875 2.921875 0.671875q0.90625 0 1.546875 -0.09375q0.65625 -0.109375 1.1875 -0.265625l0 -4.078125l-3.109375 0l0 -1.390625zm11.485916 -3.1875q1.28125 0 2.1875 0.578125q0.90625 0.5625 1.390625 1.578125q0.484375 1.015625 0.484375 2.375l0 0.9375l-6.890625 0q0.015625 1.75 0.859375 2.671875q0.859375 0.921875 2.390625 0.921875q0.953125 0 1.671875 -0.171875q0.734375 -0.171875 1.53125 -0.515625l0 1.328125q-0.765625 0.34375 -1.515625 0.5q-0.734375 0.15625 -1.75 0.15625q-1.4375 0 -2.515625 -0.59375q-1.0625 -0.59375 -1.65625 -1.71875q-0.59375 -1.140625 -0.59375 -2.796875q0 -1.609375 0.546875 -2.78125q0.546875 -1.1875 1.53125 -1.828125q0.984375 -0.640625 2.328125 -0.640625zm-0.015625 1.25q-1.21875 0 -1.9375 0.796875q-0.71875 0.78125 -0.859375 2.203125l5.296875 0q-0.015625 -0.890625 -0.28125 -1.5625q-0.265625 -0.6875 -0.8125 -1.0625q-0.546875 -0.375 -1.40625 -0.375zm11.382172 -1.25q1.765625 0 2.671875 0.875q0.921875 0.875 0.921875 2.796875l0 6.5l-1.5 0l0 -6.40625q0 -1.25 -0.578125 -1.859375q-0.5625 -0.625 -1.734375 -0.625q-1.65625 0 -2.328125 0.9375q-0.671875 0.9375 -0.671875 2.71875l0 5.234375l-1.515625 0l0 -9.984375l1.21875 0l0.234375 1.4375l0.078125 0q0.3125 -0.53125 0.796875 -0.890625q0.5 -0.359375 1.109375 -0.546875q0.609375 -0.1875 1.296875 -0.1875zm10.550903 0q1.28125 0 2.1875 0.578125q0.90625 0.5625 1.390625 1.578125q0.484375 1.015625 0.484375 2.375l0 0.9375l-6.890625 0q0.015625 1.75 0.859375 2.671875q0.859375 0.921875 2.390625 0.921875q0.953125 0 1.671875 -0.171875q0.734375 -0.171875 1.53125 -0.515625l0 1.328125q-0.765625 0.34375 -1.515625 0.5q-0.734375 0.15625 -1.75 0.15625q-1.4375 0 -2.515625 -0.59375q-1.0625 -0.59375 -1.65625 -1.71875q-0.59375 -1.140625 -0.59375 -2.796875q0 -1.609375 0.546875 -2.78125q0.546875 -1.1875 1.53125 -1.828125q0.984375 -0.640625 2.328125 -0.640625zm-0.015625 1.25q-1.21875 0 -1.9375 0.796875q-0.71875 0.78125 -0.859375 2.203125l5.296875 0q-0.015625 -0.890625 -0.28125 -1.5625q-0.265625 -0.6875 -0.8125 -1.0625q-0.546875 -0.375 -1.40625 -0.375zm11.179047 -1.25q0.3125 0 0.640625 0.03125q0.328125 0.03125 0.578125 0.09375l-0.1875 1.40625q-0.25 -0.0625 -0.5625 -0.09375q-0.296875 -0.046875 -0.546875 -0.046875q-0.609375 0 -1.140625 0.25q-0.53125 0.234375 -0.9375 0.6875q-0.390625 0.453125 -0.625 1.09375q-0.234375 0.625 -0.234375 1.390625l0 5.359375l-1.515625 0l0 -9.984375l1.25 0l0.171875 1.84375l0.0625 0q0.3125 -0.5625 0.75 -1.015625q0.4375 -0.46875 1.015625 -0.734375q0.578125 -0.28125 1.28125 -0.28125zm6.827774 0.03125q1.78125 0 2.640625 0.796875q0.875 0.796875 0.875 2.5625l0 6.78125l-1.09375 0l-0.296875 -1.46875l-0.078125 0q-0.421875 0.546875 -0.875 0.921875q-0.453125 0.359375 -1.046875 0.546875q-0.59375 0.1875 -1.46875 0.1875q-0.90625 0 -1.609375 -0.3125q-0.703125 -0.328125 -1.109375 -0.96875q-0.40625 -0.65625 -0.40625 -1.640625q0 -1.5 1.171875 -2.296875q1.1875 -0.8125 3.609375 -0.875l1.734375 -0.078125l0 -0.609375q0 -1.296875 -0.5625 -1.8125q-0.546875 -0.515625 -1.5625 -0.515625q-0.78125 0 -1.5 0.234375q-0.703125 0.21875 -1.34375 0.53125l-0.46875 -1.15625q0.671875 -0.34375 1.546875 -0.578125q0.875 -0.25 1.84375 -0.25zm2.015625 5.21875l-1.515625 0.0625q-1.859375 0.078125 -2.625 0.625q-0.765625 0.53125 -0.765625 1.515625q0 0.84375 0.515625 1.265625q0.515625 0.40625 1.375 0.40625q1.328125 0 2.171875 -0.734375q0.84375 -0.734375 0.84375 -2.21875l0 -0.921875zm6.1322327 4.921875l-1.515625 0l0 -14.171875l1.515625 0l0 14.171875zm4.70961 -9.984375l0 9.984375l-1.515625 0l0 -9.984375l1.515625 0zm-0.734375 -3.734375q0.359375 0 0.625 0.25q0.28125 0.234375 0.28125 0.75q0 0.5 -0.28125 0.75q-0.265625 0.234375 -0.625 0.234375q-0.390625 0 -0.65625 -0.234375q-0.265625 -0.25 -0.265625 -0.75q0 -0.515625 0.265625 -0.75q0.265625 -0.25 0.65625 -0.25zm10.33461 13.71875l-7.265625 0l0 -1.0l5.46875 -7.796875l-5.125 0l0 -1.1875l6.8125 0l0 1.125l-5.40625 7.6875l5.515625 0l0 1.171875zm6.073242 -10.140625q1.78125 0 2.640625 0.796875q0.875 0.796875 0.875 2.5625l0 6.78125l-1.09375 0l-0.296875 -1.46875l-0.078125 0q-0.421875 0.546875 -0.875 0.921875q-0.453125 0.359375 -1.046875 0.546875q-0.59375 0.1875 -1.46875 0.1875q-0.90625 0 -1.609375 -0.3125q-0.703125 -0.328125 -1.109375 -0.96875q-0.40625 -0.65625 -0.40625 -1.640625q0 -1.5 1.171875 -2.296875q1.1875 -0.8125 3.609375 -0.875l1.734375 -0.078125l0 -0.609375q0 -1.296875 -0.5625 -1.8125q-0.546875 -0.515625 -1.5625 -0.515625q-0.78125 0 -1.5 0.234375q-0.703125 0.21875 -1.34375 0.53125l-0.46875 -1.15625q0.671875 -0.34375 1.546875 -0.578125q0.875 -0.25 1.84375 -0.25zm2.015625 5.21875l-1.515625 0.0625q-1.859375 0.078125 -2.625 0.625q-0.765625 0.53125 -0.765625 1.515625q0 0.84375 0.515625 1.265625q0.515625 0.40625 1.375 0.40625q1.328125 0 2.171875 -0.734375q0.84375 -0.734375 0.84375 -2.21875l0 -0.921875zm7.8353577 3.859375q0.375 0 0.765625 -0.0625q0.390625 -0.0625 0.640625 -0.15625l0 1.1875q-0.265625 0.109375 -0.734375 0.1875q-0.46875 0.09375 -0.90625 0.09375q-0.796875 0 -1.453125 -0.28125q-0.640625 -0.28125 -1.03125 -0.9375q-0.375 -0.671875 -0.375 -1.84375l0 -5.921875l-1.421875 0l0 -0.734375l1.421875 -0.59375l0.609375 -2.171875l0.90625 0l0 2.3125l2.921875 0l0 1.1875l-2.921875 0l0 5.875q0 0.9375 0.421875 1.40625q0.4375 0.453125 1.15625 0.453125zm4.946808 -8.921875l0 9.984375l-1.515625 0l0 -9.984375l1.515625 0zm-0.734375 -3.734375q0.359375 0 0.625 0.25q0.28125 0.234375 0.28125 0.75q0 0.5 -0.28125 0.75q-0.265625 0.234375 -0.625 0.234375q-0.390625 0 -0.65625 -0.234375q-0.265625 -0.25 -0.265625 -0.75q0 -0.515625 0.265625 -0.75q0.265625 -0.25 0.65625 -0.25zm12.537735 8.703125q0 1.234375 -0.328125 2.203125q-0.3125 0.96875 -0.921875 1.640625q-0.59375 0.65625 -1.453125 1.015625q-0.84375 0.34375 -1.921875 0.34375q-1.0 0 -1.828125 -0.34375q-0.828125 -0.359375 -1.4375 -1.015625q-0.609375 -0.671875 -0.953125 -1.640625q-0.328125 -0.96875 -0.328125 -2.203125q0 -1.640625 0.5625 -2.78125q0.5625 -1.15625 1.59375 -1.765625q1.03125 -0.609375 2.453125 -0.609375q1.375 0 2.390625 0.609375q1.03125 0.609375 1.59375 1.765625q0.578125 1.15625 0.578125 2.78125zm-7.59375 0q0 1.203125 0.3125 2.09375q0.328125 0.875 0.984375 1.359375q0.671875 0.484375 1.71875 0.484375q1.03125 0 1.703125 -0.484375q0.671875 -0.484375 0.984375 -1.359375q0.328125 -0.890625 0.328125 -2.09375q0 -1.1875 -0.328125 -2.046875q-0.3125 -0.875 -0.984375 -1.34375q-0.65625 -0.484375 -1.71875 -0.484375q-1.5625 0 -2.28125 1.03125q-0.71875 1.03125 -0.71875 2.84375zm14.94165 -5.15625q1.765625 0 2.671875 0.875q0.921875 0.875 0.921875 2.796875l0 6.5l-1.5 0l0 -6.40625q0 -1.25 -0.578125 -1.859375q-0.5625 -0.625 -1.734375 -0.625q-1.65625 0 -2.328125 0.9375q-0.671875 0.9375 -0.671875 2.71875l0 5.234375l-1.515625 0l0 -9.984375l1.21875 0l0.234375 1.4375l0.078125 0q0.3125 -0.53125 0.796875 -0.890625q0.5 -0.359375 1.109375 -0.546875q0.609375 -0.1875 1.296875 -0.1875z" fill-rule="nonzero"/><path fill="#000000" d="m78.6441 168.12152l3.765625 0q2.5 0 3.75 0.75q1.265625 0.734375 1.265625 2.53125q0 0.78125 -0.296875 1.390625q-0.296875 0.609375 -0.875 1.015625q-0.5625 0.40625 -1.390625 0.5625l0 0.078125q0.875 0.140625 1.546875 0.515625q0.6875 0.359375 1.0625 1.015625q0.390625 0.65625 0.390625 1.65625q0 1.234375 -0.578125 2.09375q-0.5625 0.84375 -1.609375 1.28125q-1.03125 0.421875 -2.453125 0.421875l-4.578125 0l0 -13.3125zm1.546875 5.703125l2.546875 0q1.734375 0 2.40625 -0.5625q0.671875 -0.578125 0.671875 -1.6875q0 -1.140625 -0.796875 -1.640625q-0.796875 -0.5 -2.53125 -0.5l-2.296875 0l0 4.390625zm0 1.3125l0 4.96875l2.765625 0q1.78125 0 2.515625 -0.6875q0.734375 -0.703125 0.734375 -1.890625q0 -0.75 -0.328125 -1.28125q-0.328125 -0.546875 -1.078125 -0.828125q-0.75 -0.28125 -1.984375 -0.28125l-2.625 0zm14.114365 -3.875q1.28125 0 2.1875 0.578125q0.90625 0.5625 1.390625 1.578125q0.484375 1.015625 0.484375 2.375l0 0.9375l-6.890625 0q0.015625 1.75 0.859375 2.671875q0.859375 0.921875 2.390625 0.921875q0.953125 0 1.671875 -0.171875q0.734375 -0.171875 1.53125 -0.515625l0 1.328125q-0.765625 0.34375 -1.515625 0.5q-0.734375 0.15625 -1.75 0.15625q-1.4375 0 -2.515625 -0.59375q-1.0625 -0.59375 -1.65625 -1.71875q-0.59375 -1.140625 -0.59375 -2.796875q0 -1.609375 0.546875 -2.78125q0.546875 -1.1875 1.53125 -1.828125q0.984375 -0.640625 2.328125 -0.640625zm-0.015625 1.25q-1.21875 0 -1.9375 0.796875q-0.71875 0.78125 -0.859375 2.203125l5.296875 0q-0.015625 -0.890625 -0.28125 -1.5625q-0.265625 -0.6875 -0.8125 -1.0625q-0.546875 -0.375 -1.40625 -0.375zm8.163422 -5.25l0 4.234375q0 0.359375 -0.03125 0.734375q-0.015625 0.359375 -0.046875 0.671875l0.09375 0q0.3125 -0.53125 0.78125 -0.890625q0.484375 -0.359375 1.09375 -0.53125q0.609375 -0.1875 1.296875 -0.1875q1.203125 0 2.0 0.390625q0.8125 0.375 1.21875 1.171875q0.40625 0.796875 0.40625 2.078125l0 6.5l-1.5 0l0 -6.40625q0 -1.25 -0.578125 -1.859375q-0.5625 -0.625 -1.734375 -0.625q-1.109375 0 -1.765625 0.421875q-0.65625 0.421875 -0.953125 1.25q-0.28125 0.8125 -0.28125 2.0l0 5.21875l-1.515625 0l0 -14.171875l1.515625 0zm13.660278 4.03125q1.78125 0 2.640625 0.796875q0.875 0.796875 0.875 2.5625l0 6.78125l-1.09375 0l-0.296875 -1.46875l-0.078125 0q-0.421875 0.546875 -0.875 0.921875q-0.453125 0.359375 -1.046875 0.546875q-0.59375 0.1875 -1.46875 0.1875q-0.90625 0 -1.609375 -0.3125q-0.703125 -0.328125 -1.109375 -0.96875q-0.40625 -0.65625 -0.40625 -1.640625q0 -1.5 1.171875 -2.296875q1.1875 -0.8125 3.609375 -0.875l1.734375 -0.078125l0 -0.609375q0 -1.296875 -0.5625 -1.8125q-0.546875 -0.515625 -1.5625 -0.515625q-0.78125 0 -1.5 0.234375q-0.703125 0.21875 -1.34375 0.53125l-0.46875 -1.15625q0.671875 -0.34375 1.546875 -0.578125q0.875 -0.25 1.84375 -0.25zm2.015625 5.21875l-1.515625 0.0625q-1.859375 0.078125 -2.625 0.625q-0.765625 0.53125 -0.765625 1.515625q0 0.84375 0.515625 1.265625q0.515625 0.40625 1.375 0.40625q1.328125 0 2.171875 -0.734375q0.84375 -0.734375 0.84375 -2.21875l0 -0.921875zm6.8197327 4.921875l-3.796875 -9.984375l1.625 0l2.1875 6.046875q0.234375 0.609375 0.46875 1.359375q0.234375 0.75 0.328125 1.203125l0.0625 0q0.109375 -0.453125 0.359375 -1.203125q0.265625 -0.75 0.46875 -1.359375l2.2031174 -6.046875l1.609375 0l-3.7968674 9.984375l-1.71875 0zm8.631508 -9.984375l0 9.984375l-1.515625 0l0 -9.984375l1.515625 0zm-0.734375 -3.734375q0.359375 0 0.625 0.25q0.28125 0.234375 0.28125 0.75q0 0.5 -0.28125 0.75q-0.265625 0.234375 -0.625 0.234375q-0.390625 0 -0.65625 -0.234375q-0.265625 -0.25 -0.265625 -0.75q0 -0.515625 0.265625 -0.75q0.265625 -0.25 0.65625 -0.25zm12.537735 8.703125q0 1.234375 -0.328125 2.203125q-0.3125 0.96875 -0.921875 1.640625q-0.59375 0.65625 -1.453125 1.015625q-0.84375 0.34375 -1.921875 0.34375q-1.0 0 -1.828125 -0.34375q-0.828125 -0.359375 -1.4375 -1.015625q-0.609375 -0.671875 -0.953125 -1.640625q-0.328125 -0.96875 -0.328125 -2.203125q0 -1.640625 0.5625 -2.78125q0.5625 -1.15625 1.59375 -1.765625q1.03125 -0.609375 2.453125 -0.609375q1.375 0 2.390625 0.609375q1.03125 0.609375 1.59375 1.765625q0.578125 1.15625 0.578125 2.78125zm-7.59375 0q0 1.203125 0.3125 2.09375q0.328125 0.875 0.984375 1.359375q0.671875 0.484375 1.71875 0.484375q1.03125 0 1.703125 -0.484375q0.671875 -0.484375 0.984375 -1.359375q0.328125 -0.890625 0.328125 -2.09375q0 -1.1875 -0.328125 -2.046875q-0.3125 -0.875 -0.984375 -1.34375q-0.65625 -0.484375 -1.71875 -0.484375q-1.5625 0 -2.28125 1.03125q-0.71875 1.03125 -0.71875 2.84375zm14.738525 -5.15625q0.3125 0 0.640625 0.03125q0.328125 0.03125 0.578125 0.09375l-0.1875 1.40625q-0.25 -0.0625 -0.5625 -0.09375q-0.296875 -0.046875 -0.546875 -0.046875q-0.609375 0 -1.140625 0.25q-0.53125 0.234375 -0.9375 0.6875q-0.390625 0.453125 -0.625 1.09375q-0.234375 0.625 -0.234375 1.390625l0 5.359375l-1.515625 0l0 -9.984375l1.25 0l0.171875 1.84375l0.0625 0q0.3125 -0.5625 0.75 -1.015625q0.4375 -0.46875 1.015625 -0.734375q0.578125 -0.28125 1.28125 -0.28125zm9.546524 7.4375q0 0.953125 -0.484375 1.609375q-0.46875 0.65625 -1.359375 0.984375q-0.890625 0.328125 -2.109375 0.328125q-1.046875 0 -1.8125 -0.171875q-0.765625 -0.15625 -1.34375 -0.46875l0 -1.390625q0.609375 0.296875 1.453125 0.546875q0.859375 0.25 1.734375 0.25q1.296875 0 1.875 -0.421875q0.59375 -0.421875 0.59375 -1.140625q0 -0.40625 -0.234375 -0.71875q-0.234375 -0.3125 -0.78125 -0.609375q-0.546875 -0.296875 -1.515625 -0.65625q-0.953125 -0.359375 -1.65625 -0.71875q-0.6875 -0.359375 -1.078125 -0.875q-0.375 -0.53125 -0.375 -1.359375q0 -1.265625 1.015625 -1.9375q1.03125 -0.6875 2.703125 -0.6875q0.90625 0 1.6875 0.1875q0.796875 0.171875 1.46875 0.46875l-0.5 1.21875q-0.625 -0.265625 -1.328125 -0.4375q-0.703125 -0.1875 -1.421875 -0.1875q-1.046875 0 -1.609375 0.34375q-0.5625 0.34375 -0.5625 0.9375q0 0.46875 0.25 0.78125q0.265625 0.296875 0.84375 0.5625q0.578125 0.25 1.515625 0.609375q0.9375 0.34375 1.609375 0.71875q0.6875 0.375 1.046875 0.90625q0.375 0.515625 0.375 1.328125z" fill-rule="nonzero"/><path fill="#000000" fill-opacity="0.0" d="m176.53621 108.259476c0 -21.660576 55.732285 -43.329033 111.464584 -43.32115c55.73227 0.007873535 111.46457 21.69207 111.46457 43.38414" fill-rule="evenodd"/><path stroke="#595959" stroke-width="2.3989501312335957" stroke-linejoin="round" stroke-linecap="butt" d="m176.53621 108.259476c0 -21.660576 55.732285 -43.329033 111.464584 -43.32115c27.86612 0.0039367676 55.73227 5.4269485 76.63187 13.560493c10.449799 4.0667725 19.15799 8.8111725 25.253693 13.894638c0.7619934 0.635437 1.4831238 1.2761612 2.1617432 1.9215393c0.33932495 0.3226776 0.66799927 0.6465149 0.9858093 0.9714432l0.10360718 0.10788727" fill-rule="evenodd"/><path fill="#595959" stroke="#595959" stroke-width="2.3989501312335957" stroke-linecap="butt" d="m389.57852 97.13631l8.345032 8.036209l-1.2270813 -11.52018z" fill-rule="evenodd"/><path fill="#000000" fill-opacity="0.0" d="m206.04817 16.6568l163.9055 0l0 24.346458l-163.9055 0z" fill-rule="evenodd"/><path fill="#595959" d="m233.74507 44.6968l-1.6875 -4.765625l-6.546875 0l-1.671875 4.765625l-2.96875 0l6.375 -17.203127l3.125 0l6.359375 17.203127l-2.984375 0zm-2.40625 -7.171875l-1.625 -4.6875q-0.09375 -0.3125 -0.28125 -0.8593769q-0.171875 -0.5625 -0.34375 -1.140625q-0.171875 -0.578125 -0.296875 -0.984375q-0.109375 0.484375 -0.28125 1.078125q-0.171875 0.59375 -0.328125 1.1093769q-0.15625 0.515625 -0.25 0.796875l-1.640625 4.6875l5.046875 0zm10.1171875 -11.062502l0 4.390625q0 0.765625 -0.046875 1.5000019q-0.03125 0.734375 -0.0625 1.140625l0.109375 0q0.53125 -0.84375 1.46875 -1.421875q0.953125 -0.5781269 2.421875 -0.5781269q2.3125 0 3.71875 1.6875019q1.40625 1.6875 1.40625 5.015625q0 2.203125 -0.640625 3.703125q-0.640625 1.5 -1.8125 2.265625q-1.171875 0.765625 -2.734375 0.765625q-1.484375 0 -2.390625 -0.546875q-0.90625 -0.546875 -1.421875 -1.265625l-0.203125 0l-0.5 1.578125l-2.0625 0l0 -18.234377l2.75 0zm3.171875 7.265627q-1.171875 0 -1.859375 0.46875q-0.6875 0.46875 -1.0 1.40625q-0.296875 0.921875 -0.3125 2.359375l0 0.234375q0 2.171875 0.6875 3.328125q0.6875 1.140625 2.5 1.140625q1.453125 0 2.21875 -1.15625q0.78125 -1.171875 0.78125 -3.359375q0 -2.203125 -0.78125 -3.3125q-0.765625 -1.109375 -2.234375 -1.109375zm17.738297 7.265625q0 1.28125 -0.625 2.15625q-0.609375 0.875 -1.8125 1.328125q-1.1875 0.453125 -2.90625 0.453125q-1.3593903 0 -2.3437653 -0.203125q-0.96875 -0.1875 -1.84375 -0.578125l0 -2.390625q0.9375 0.4375 2.078125 0.765625q1.1562653 0.3125 2.1875153 0.3125q1.359375 0 1.953125 -0.421875q0.609375 -0.4375 0.609375 -1.15625q0 -0.421875 -0.25 -0.75q-0.234375 -0.34375 -0.890625 -0.6875q-0.640625 -0.359375 -1.890625 -0.875q-1.2343903 -0.484375 -2.0781403 -0.96875q-0.84375 -0.5 -1.28125 -1.1875q-0.4375 -0.703125 -0.4375 -1.796875q0 -1.71875 1.359375 -2.609375q1.375 -0.9062519 3.6250153 -0.9062519q1.203125 0 2.25 0.25q1.0625 0.234375 2.09375 0.6875019l-0.875 2.078125q-0.875 -0.390625 -1.765625 -0.640625q-0.875 -0.25 -1.796875 -0.25q-1.0625 0 -1.625 0.328125q-0.54689026 0.328125 -0.54689026 0.9375q0 0.453125 0.265625 0.765625q0.26564026 0.3125 0.92189026 0.640625q0.671875 0.3125 1.859375 0.78125q1.15625 0.4375 2.0 0.9375q0.859375 0.484375 1.3125 1.1875q0.453125 0.703125 0.453125 1.8125zm7.7929688 1.703125q0.546875 0 1.0625 -0.09375q0.53125 -0.09375 0.96875 -0.234375l0 2.078125q-0.453125 0.203125 -1.1875 0.34375q-0.71875 0.140625 -1.515625 0.140625q-1.09375 0 -1.984375 -0.359375q-0.875 -0.375 -1.390625 -1.28125q-0.515625 -0.90625 -0.515625 -2.5l0 -6.96875l-1.765625 0l0 -1.234375l1.90625 -0.9687519l0.890625 -2.78125l1.734375 0l0 2.890625l3.71875 0l0 2.093752l-3.71875 0l0 6.9375q0 0.984375 0.484375 1.46875q0.5 0.46875 1.3125 0.46875zm11.2421875 -11.218752q0.328125 0 0.703125 0.03125q0.390625 0.03125 0.671875 0.09375l-0.25 2.578127q-0.25 -0.0625 -0.609375 -0.09375q-0.359375 -0.046875 -0.640625 -0.046875q-0.734375 0 -1.40625 0.25q-0.65625 0.234375 -1.171875 0.71875q-0.515625 0.484375 -0.8125 1.21875q-0.296875 0.71875 -0.296875 1.6875l0 6.78125l-2.765625 0l0 -12.968752l2.15625 0l0.375 2.281252l0.125 0q0.390625 -0.6875 0.96875 -1.265625q0.578125 -0.578125 1.3125 -0.9218769q0.75 -0.34375 1.640625 -0.34375zm8.875 0q2.453125 0 3.703125 1.0937519q1.265625 1.078125 1.265625 3.390625l0 8.734375l-1.953125 0l-0.53125 -1.84375l-0.09375 0q-0.546875 0.703125 -1.140625 1.171875q-0.578125 0.453125 -1.34375 0.671875q-0.765625 0.234375 -1.875 0.234375q-1.15625 0 -2.078125 -0.421875q-0.90625 -0.4375 -1.4375 -1.3125q-0.515625 -0.875 -0.515625 -2.234375q0 -2.0 1.484375 -3.0q1.5 -1.015625 4.515625 -1.125l2.25 -0.078125l0 -0.671875q0 -1.359375 -0.625 -1.921875q-0.625 -0.578125 -1.765625 -0.578125q-0.96875 0 -1.890625 0.28125q-0.90625 0.28125 -1.765625 0.6875l-0.890625 -1.9375q0.9375 -0.515625 2.15625 -0.8281269q1.21875 -0.3125 2.53125 -0.3125zm2.25 7.015627l-1.6875 0.0625q-2.0625 0.0625 -2.890625 0.703125q-0.828125 0.625 -0.828125 1.734375q0 0.953125 0.5625 1.40625q0.578125 0.4375 1.515625 0.4375q1.4375 0 2.375 -0.8125q0.953125 -0.828125 0.953125 -2.40625l0 -1.125zm11.8125 6.4375q-1.84375 0 -3.203125 -0.71875q-1.34375 -0.71875 -2.078125 -2.1875q-0.71875 -1.484375 -0.71875 -3.75q0 -2.375 0.796875 -3.875q0.796875 -1.5 2.203125 -2.203125q1.421875 -0.7187519 3.25 -0.7187519q1.15625 0 2.09375 0.234375q0.953125 0.21875 1.609375 0.5468769l-0.8125 2.203125q-0.71875 -0.296875 -1.46875 -0.484375q-0.75 -0.203125 -1.4375 -0.203125q-1.140625 0 -1.90625 0.5q-0.75 0.5 -1.125 1.5q-0.359375 1.0 -0.359375 2.46875q0 1.4375 0.375 2.421875q0.375 0.96875 1.109375 1.46875q0.734375 0.5 1.8125 0.5q1.078125 0 1.921875 -0.25q0.84375 -0.265625 1.59375 -0.671875l0 2.390625q-0.75 0.421875 -1.59375 0.625q-0.84375 0.203125 -2.0625 0.203125zm11.511719 -2.234375q0.546875 0 1.0625 -0.09375q0.53125 -0.09375 0.96875 -0.234375l0 2.078125q-0.453125 0.203125 -1.1875 0.34375q-0.71875 0.140625 -1.515625 0.140625q-1.09375 0 -1.984375 -0.359375q-0.875 -0.375 -1.390625 -1.28125q-0.515625 -0.90625 -0.515625 -2.5l0 -6.96875l-1.765625 0l0 -1.234375l1.90625 -0.9687519l0.890625 -2.78125l1.734375 0l0 2.890625l3.71875 0l0 2.093752l-3.71875 0l0 6.9375q0 0.984375 0.484375 1.46875q0.5 0.46875 1.3125 0.46875zm7.4140625 -10.968752l0 12.968752l-2.75 0l0 -12.968752l2.75 0zm-1.359375 -4.96875q0.640625 0 1.09375 0.34375q0.46875 0.328125 0.46875 1.15625q0 0.828125 -0.46875 1.171875q-0.453125 0.34375 -1.09375 0.34375q-0.65625 0 -1.109375 -0.34375q-0.4375 -0.34375 -0.4375 -1.171875q0 -0.828125 0.4375 -1.15625q0.453125 -0.34375 1.109375 -0.34375zm16.785156 11.421877q0 1.609375 -0.421875 2.875q-0.421875 1.25 -1.234375 2.109375q-0.796875 0.859375 -1.9375 1.3125q-1.140625 0.453125 -2.5625 0.453125q-1.34375 0 -2.453125 -0.453125q-1.109375 -0.453125 -1.9375 -1.3125q-0.8125 -0.859375 -1.265625 -2.109375q-0.4375 -1.265625 -0.4375 -2.875q0 -2.140625 0.75 -3.640625q0.75 -1.5 2.125 -2.28125q1.390625 -0.7812519 3.296875 -0.7812519q1.796875 0 3.15625 0.7812519q1.375 0.78125 2.140625 2.28125q0.78125 1.5 0.78125 3.640625zm-9.40625 0q0 1.421875 0.34375 2.4375q0.34375 1.0 1.0625 1.53125q0.734375 0.53125 1.890625 0.53125q1.140625 0 1.859375 -0.53125q0.734375 -0.53125 1.078125 -1.53125q0.34375 -1.015625 0.34375 -2.4375q0 -1.421875 -0.34375 -2.40625q-0.34375 -1.0 -1.078125 -1.515625q-0.71875 -0.515625 -1.875 -0.515625q-1.71875 0 -2.5 1.15625q-0.78125 1.140625 -0.78125 3.28125zm19.335938 -6.703127q2.1875 0 3.40625 1.1406269q1.234375 1.125 1.234375 3.609375l0 8.46875l-2.75 0l0 -7.953125q0 -1.5 -0.625 -2.25q-0.625 -0.765625 -1.921875 -0.765625q-1.890625 0 -2.625 1.15625q-0.734375 1.15625 -0.734375 3.359375l0 6.453125l-2.75 0l0 -12.968752l2.140625 0l0.390625 1.7500019l0.15625 0q0.421875 -0.671875 1.046875 -1.109375q0.625 -0.4531269 1.40625 -0.6718769q0.78125 -0.21875 1.625 -0.21875z" fill-rule="nonzero"/><path fill="#000000" fill-opacity="0.0" d="m399.46378 218.76857c0 22.385056 -55.73227 44.762253 -111.46457 44.770126c-55.73227 0.007873535 -111.464554 -22.353561 -111.464554 -44.707138" fill-rule="evenodd"/><path stroke="#595959" stroke-width="2.3989501312335957" stroke-linejoin="round" stroke-linecap="butt" d="m399.46378 218.76859c0 22.38504 -55.73227 44.762238 -111.46457 44.77011c-27.86612 0.0039367676 -55.73227 -5.5844727 -76.63188 -13.968033c-10.449799 -4.1917877 -19.157959 -9.082367 -25.253677 -14.322098c-0.76197815 -0.654953 -1.4831085 -1.3153992 -2.161728 -1.9805756c-0.33932495 -0.33259583 -0.66799927 -0.66638184 -0.9858551 -1.0012817l-0.35871887 -0.38519287" fill-rule="evenodd"/><path fill="#595959" stroke="#595959" stroke-width="2.3989501312335957" stroke-linecap="butt" d="m186.19984 230.20978l-8.185577 -8.198578l1.0005798 11.542053z" fill-rule="evenodd"/><path fill="#000000" fill-opacity="0.0" d="m219.0237 273.55325l137.95277 0l0 24.346466l-137.95277 0z" fill-rule="evenodd"/><path fill="#595959" d="m235.9493 284.45264q3.3125 0 4.828125 1.359375q1.53125 1.359375 1.53125 3.8125q0 1.109375 -0.34375 2.125q-0.34375 1.0 -1.140625 1.765625q-0.78125 0.765625 -2.0625 1.21875q-1.28125 0.4375 -3.15625 0.4375l-1.828125 0l0 6.421875l-2.8125 0l0 -17.140625l4.984375 0zm-0.1875 2.34375l-1.984375 0l0 6.03125l1.53125 0q1.328125 0 2.25 -0.3125q0.9375 -0.3125 1.40625 -0.984375q0.484375 -0.6875 0.484375 -1.796875q0 -1.484375 -0.90625 -2.203125q-0.890625 -0.734375 -2.78125 -0.734375zm16.253906 1.578125q0.328125 0 0.703125 0.03125q0.390625 0.03125 0.671875 0.09375l-0.25 2.578125q-0.25 -0.0625 -0.609375 -0.09375q-0.359375 -0.046875 -0.640625 -0.046875q-0.734375 0 -1.40625 0.25q-0.65625 0.234375 -1.171875 0.71875q-0.515625 0.484375 -0.8125 1.21875q-0.296875 0.71875 -0.296875 1.6875l0 6.78125l-2.765625 0l0 -12.96875l2.15625 0l0.375 2.28125l0.125 0q0.390625 -0.6875 0.96875 -1.265625q0.578125 -0.578125 1.3125 -0.921875q0.75 -0.34375 1.640625 -0.34375zm8.95314 0q1.734375 0 2.96875 0.71875q1.25 0.703125 1.90625 2.015625q0.671875 1.3125 0.671875 3.140625l0 1.484375l-8.65625 0q0.046875 1.890625 1.015625 2.90625q0.96875 1.015625 2.71875 1.015625q1.234375 0 2.21875 -0.234375q1.0 -0.25 2.046875 -0.71875l0 2.25q-0.96875 0.453125 -1.984375 0.65625q-1.0 0.21875 -2.40625 0.21875q-1.90625 0 -3.359375 -0.734375q-1.4375 -0.75 -2.2656403 -2.21875q-0.8125 -1.484375 -0.8125 -3.6875q0 -2.171875 0.734375 -3.6875q0.75001526 -1.53125 2.0781403 -2.328125q1.34375 -0.796875 3.125 -0.796875zm0 2.078125q-1.296875 0 -2.109375 0.84375q-0.796875 0.84375 -0.9375 2.46875l5.90625 0q-0.015625 -0.96875 -0.328125 -1.71875q-0.3125 -0.75 -0.9375 -1.171875q-0.625 -0.421875 -1.59375 -0.421875zm13.015625 11.375q-2.3125 0 -3.71875 -1.6875q-1.40625 -1.703125 -1.40625 -5.0q0 -3.34375 1.421875 -5.046875q1.4375 -1.71875 3.765625 -1.71875q0.984375 0 1.71875 0.265625q0.734375 0.265625 1.265625 0.71875q0.546875 0.4375 0.921875 0.984375l0.125 0q-0.0625 -0.359375 -0.140625 -1.046875q-0.078125 -0.6875 -0.078125 -1.28125l0 -4.65625l2.765625 0l0 18.234375l-2.15625 0l-0.484375 -1.765625l-0.125 0q-0.34375 0.5625 -0.875 1.015625q-0.53125 0.4375 -1.265625 0.71875q-0.734375 0.265625 -1.734375 0.265625zm0.78125 -2.234375q1.765625 0 2.484375 -1.015625q0.734375 -1.03125 0.75 -3.0625l0 -0.375q0 -2.171875 -0.703125 -3.328125q-0.703125 -1.171875 -2.5625 -1.171875q-1.484375 0 -2.265625 1.203125q-0.78125 1.1875 -0.78125 3.34375q0 2.140625 0.78125 3.28125q0.78125 1.125 2.296875 1.125zm12.550781 -10.96875l0 12.96875l-2.75 0l0 -12.96875l2.75 0zm-1.359375 -4.96875q0.640625 0 1.09375 0.34375q0.46875 0.328125 0.46875 1.15625q0 0.828125 -0.46875 1.171875q-0.453125 0.34375 -1.09375 0.34375q-0.65625 0 -1.109375 -0.34375q-0.4375 -0.34375 -0.4375 -1.171875q0 -0.828125 0.4375 -1.15625q0.453125 -0.34375 1.109375 -0.34375zm10.535156 18.171875q-1.84375 0 -3.203125 -0.71875q-1.34375 -0.71875 -2.078125 -2.1875q-0.71875 -1.484375 -0.71875 -3.75q0 -2.375 0.796875 -3.875q0.796875 -1.5 2.203125 -2.203125q1.421875 -0.71875 3.25 -0.71875q1.15625 0 2.09375 0.234375q0.953125 0.21875 1.609375 0.546875l-0.8125 2.203125q-0.71875 -0.296875 -1.46875 -0.484375q-0.75 -0.203125 -1.4375 -0.203125q-1.140625 0 -1.90625 0.5q-0.75 0.5 -1.125 1.5q-0.359375 1.0 -0.359375 2.46875q0 1.4375 0.375 2.421875q0.375 0.96875 1.109375 1.46875q0.734375 0.5 1.8125 0.5q1.078125 0 1.921875 -0.25q0.84375 -0.265625 1.59375 -0.671875l0 2.390625q-0.75 0.421875 -1.59375 0.625q-0.84375 0.203125 -2.0625 0.203125zm11.511719 -2.234375q0.546875 0 1.0625 -0.09375q0.53125 -0.09375 0.96875 -0.234375l0 2.078125q-0.453125 0.203125 -1.1875 0.34375q-0.71875 0.140625 -1.515625 0.140625q-1.09375 0 -1.984375 -0.359375q-0.875 -0.375 -1.390625 -1.28125q-0.515625 -0.90625 -0.515625 -2.5l0 -6.96875l-1.765625 0l0 -1.234375l1.90625 -0.96875l0.890625 -2.78125l1.734375 0l0 2.890625l3.71875 0l0 2.09375l-3.71875 0l0 6.9375q0 0.984375 0.484375 1.46875q0.5 0.46875 1.3125 0.46875zm7.4140625 -10.96875l0 12.96875l-2.75 0l0 -12.96875l2.75 0zm-1.359375 -4.96875q0.640625 0 1.09375 0.34375q0.46875 0.328125 0.46875 1.15625q0 0.828125 -0.46875 1.171875q-0.453125 0.34375 -1.09375 0.34375q-0.65625 0 -1.109375 -0.34375q-0.4375 -0.34375 -0.4375 -1.171875q0 -0.828125 0.4375 -1.15625q0.453125 -0.34375 1.109375 -0.34375zm16.785156 11.421875q0 1.609375 -0.421875 2.875q-0.421875 1.25 -1.234375 2.109375q-0.796875 0.859375 -1.9375 1.3125q-1.140625 0.453125 -2.5625 0.453125q-1.34375 0 -2.453125 -0.453125q-1.109375 -0.453125 -1.9375 -1.3125q-0.8125 -0.859375 -1.265625 -2.109375q-0.4375 -1.265625 -0.4375 -2.875q0 -2.140625 0.75 -3.640625q0.75 -1.5 2.125 -2.28125q1.390625 -0.78125 3.296875 -0.78125q1.796875 0 3.15625 0.78125q1.375 0.78125 2.140625 2.28125q0.78125 1.5 0.78125 3.640625zm-9.40625 0q0 1.421875 0.34375 2.4375q0.34375 1.0 1.0625 1.53125q0.734375 0.53125 1.890625 0.53125q1.140625 0 1.859375 -0.53125q0.734375 -0.53125 1.078125 -1.53125q0.34375 -1.015625 0.34375 -2.4375q0 -1.421875 -0.34375 -2.40625q-0.34375 -1.0 -1.078125 -1.515625q-0.71875 -0.515625 -1.875 -0.515625q-1.71875 0 -2.5 1.15625q-0.78125 1.140625 -0.78125 3.28125zm19.335938 -6.703125q2.1875 0 3.40625 1.140625q1.234375 1.125 1.234375 3.609375l0 8.46875l-2.75 0l0 -7.953125q0 -1.5 -0.625 -2.25q-0.625 -0.765625 -1.921875 -0.765625q-1.890625 0 -2.625 1.15625q-0.734375 1.15625 -0.734375 3.359375l0 6.453125l-2.75 0l0 -12.96875l2.140625 0l0.390625 1.75l0.15625 0q0.421875 -0.671875 1.046875 -1.109375q0.625 -0.453125 1.40625 -0.671875q0.78125 -0.21875 1.625 -0.21875z" fill-rule="nonzero"/></g></svg>